<svg id="Layer_2" data-name="Layer 2" xmlns="http://www.w3.org/2000/svg" width="210" height="30" viewBox="0 0 210 30">
    <title>logo TAexperiences</title>
    <path fill="#00ad84" d="M86.35,8.86a1.17,1.17,0,1,0,1.17-1.17A1.17,1.17,0,0,0,86.35,8.86Z"/>
    <path fill="#091015"
          d="M31,8.78l-1.76.61v2.3h-2v1.55h1.9v5c0,2.36.8,3.33,2.78,3.33a5.53,5.53,0,0,0,1.46-.2l.07,0,0-1.6-.13.05a2.83,2.83,0,0,1-.93.2c-.93,0-1.27-.52-1.27-1.93V13.24H33.4V11.69H31.14v-3Z"/>
    <path fill="#091015"
          d="M37.11,13.26V11.69H35.32v9.67h2V16.51c0-2,.85-3.16,2.4-3.16a2.37,2.37,0,0,1,.71.11l.13,0,.06-1.91-.84-.07A2.9,2.9,0,0,0,37.11,13.26Z"/>
    <path fill="#091015"
          d="M51.1,11.47a3.75,3.75,0,0,0-3.23,1.79V11.69H46.08v13.6h2V20a3.56,3.56,0,0,0,3,1.49c2.48,0,4.08-2,4.08-5.17C55.1,13.42,53.49,11.47,51.1,11.47Zm-.55,8.45C49,19.92,48,18.6,48,16.47s1-3.38,2.59-3.38,2.42,1.26,2.42,3.36S52.09,19.92,50.55,19.92Z"/>
    <path fill="#00ad84"
          d="M60.83,11.47a7.14,7.14,0,0,0-3.21.69l-.06,0,0,1.68.15-.09A5.32,5.32,0,0,1,60.32,13a2,2,0,0,1,2.23,2.24v.08H61.43c-3.23,0-5,1.17-5,3.29a2.88,2.88,0,0,0,3.12,2.89A3.69,3.69,0,0,0,62.68,20v1.4h1.77V15.51C64.45,12.83,63.23,11.47,60.83,11.47Zm1.72,5.81A2.48,2.48,0,0,1,60,20a1.5,1.5,0,0,1-1.61-1.52c0-1.17,1.12-1.81,3.15-1.81h1Z"/>
    <path fill="#00ad84"
          d="M72.78,7.08V13a3.52,3.52,0,0,0-3-1.54c-2.4,0-4,2-4,4.9s1.63,5.14,4,5.14a3.6,3.6,0,0,0,3.21-1.81v1.66h1.81V7.08ZM70.23,19.89c-1.49,0-2.42-1.31-2.42-3.4S68.74,13,70.19,13c1.62,0,2.59,1.29,2.59,3.46S71.78,19.89,70.23,19.89Z"/>
    <path fill="#00ad84" d="M83.5,11.69l-2.78,5.58-2.57-5.58H75.94l4.74,9.67,4.86-9.67Z"/>
    <path fill="#00ad84" d="M88.4,11.69H86.54v9.67h2V11.69Z"/>
    <path fill="#00ad84"
          d="M90.8,14.17c0,1.36.94,2.08,2.66,2.92,1.09.53,1.66.85,1.66,1.6S94.42,20,93.33,20a5.71,5.71,0,0,1-2.45-.63l-.15-.07L90.67,21l.06,0a6.85,6.85,0,0,0,2.53.48c2.4,0,3.95-1.14,3.95-2.91,0-1.48-1-2.22-2.68-3-1.25-.58-1.77-.92-1.77-1.54s.58-1,1.48-1a5.39,5.39,0,0,1,2.35.54l.14.06L96.82,12l-.08,0a8.51,8.51,0,0,0-2.39-.36C92.23,11.58,90.8,12.62,90.8,14.17Z"/>
    <path fill="#00ad84"
          d="M103.32,11.47c-2.95,0-4.78,1.93-4.78,5s1.83,5.06,4.78,5.06,4.79-1.94,4.79-5.06S106.28,11.47,103.32,11.47Zm0,8.51c-1.63,0-2.72-1.4-2.72-3.47s1.09-3.5,2.72-3.5,2.72,1.37,2.72,3.5S105,20,103.34,20Z"/>
    <path fill="#00ad84"
          d="M111.73,13.26V11.69h-1.79v9.67h2V16.51c0-2,.85-3.16,2.4-3.16a2.37,2.37,0,0,1,.71.11l.13,0,.06-1.91-.84-.07A2.89,2.89,0,0,0,111.73,13.26Z"/>
    <path fill="#091015" d="M44.07,11.69H42.22v9.67h2V11.69Z"/>
    <path fill="#091015" d="M42,8.86a1.17,1.17,0,1,0,1.16-1.17A1.16,1.16,0,0,0,42,8.86Z"/>
    <path fill="#f8c212"
          d="M4.67,10.13c2.27-.3,8.71-.5,6.94,8.8l2-.17c-.87-5.73,1-8.65,6.69-8.93C10.8,4.57,5.39,10,4.67,10.13Z"/>
    <path fill="#fff" d="M13.52,17.45a5.44,5.44,0,1,0,3.22-7A5.45,5.45,0,0,0,13.52,17.45Z"/>
    <path fill="#fff" d="M12,15.55A5.45,5.45,0,1,1,6.56,10.1,5.45,5.45,0,0,1,12,15.55Z"/>
    <path fill="#ed6945" d="M7.49,15.49a1,1,0,1,1-1-1A1,1,0,0,1,7.49,15.49Z"/>
    <path fill="#00ad84" d="M19.62,15.49a1,1,0,1,1-2,0,1,1,0,0,1,2,0Z"/>
    <path fill="#091015"
          d="M23.48,12a7.91,7.91,0,0,1,1.19-2.42h-4A14.74,14.74,0,0,0,12.56,7.3,15,15,0,0,0,4.29,9.57H.5A8.08,8.08,0,0,1,1.69,12a6,6,0,0,0,9.59,7.36l1.29,1.93,1.3-2a5.91,5.91,0,0,0,2.22,1.76,6.05,6.05,0,0,0,8.21-7.6A5.8,5.8,0,0,0,23.48,12ZM18.43,9.52A6.06,6.06,0,0,0,13.12,13a6.26,6.26,0,0,0-.53,2.07A6,6,0,0,0,6.68,9.5a15,15,0,0,1,5.88-1.15A14.3,14.3,0,0,1,18.43,9.52ZM6.56,20.38a4.83,4.83,0,1,1,4.83-4.83A4.83,4.83,0,0,1,6.56,20.38ZM20.3,20.1a4.82,4.82,0,0,1-6.21-2.86h0A4.82,4.82,0,0,1,17,11,4.83,4.83,0,1,1,20.3,20.1Z"/>
    <path fill="#091015" d="M6.48,12.5a3,3,0,1,0,3,3A3,3,0,0,0,6.48,12.5Zm0,4.95a2,2,0,1,1,2-2A2,2,0,0,1,6.48,17.45Z"/>
    <path fill="#091015"
          d="M18.61,12.5a3,3,0,1,0,3,3A3,3,0,0,0,18.61,12.5Zm0,4.95a2,2,0,1,1,2-2A2,2,0,0,1,18.61,17.45Z"/>
    <g opacity="0.5">
        <path fill="#00ad84"
              d="M120,10.34a1.72,1.72,0,0,1,.49,1.22,1.7,1.7,0,0,1-.52,1.24,1.77,1.77,0,0,1-1.24.51,1.7,1.7,0,0,1-1.24-.53,1.72,1.72,0,0,1-.5-1.22,1.76,1.76,0,0,1,.53-1.26,1.69,1.69,0,0,1,1.21-.49A1.73,1.73,0,0,1,120,10.34Zm-2.26.19a1.45,1.45,0,0,0-.43,1,1.41,1.41,0,0,0,.41,1,1.39,1.39,0,0,0,1,.43,1.45,1.45,0,0,0,1-.41,1.45,1.45,0,0,0,0-2,1.44,1.44,0,0,0-1-.43A1.41,1.41,0,0,0,117.71,10.53Zm1,0c.55,0,.83.2.83.56a.53.53,0,0,1-.41.52l.43.84H119l-.36-.76h-.16v.76H118V10.56Zm-.25.85h.19c.23,0,.34-.08.34-.25s-.11-.27-.37-.27h-.16Z"/>
    </g>
    <path d="M123.71,9.76h7.4v1.59h-5.57v3.27h5v1.59h-5v3.5h5.8V21.3h-7.63Z"/>
    <path d="M135.3,17.34l-2.76-3.71h2l1.78,2.55,1.72-2.55h2l-2.73,3.72,3,3.95h-2l-2-2.82-1.9,2.82h-2Z"/>
    <path d="M141.5,13.63h1.64l0,1.14a3,3,0,0,1,2.74-1.38,3.55,3.55,0,0,1,1.86.5,3.43,3.43,0,0,1,1.31,1.43,4.59,4.59,0,0,1,.48,2.14,4.45,4.45,0,0,1-.47,2,3.93,3.93,0,0,1-1.33,1.5,3.38,3.38,0,0,1-1.92.57,3.5,3.5,0,0,1-1.52-.32,2.52,2.52,0,0,1-1.06-.93V25H141.5Zm4,6.35a2.16,2.16,0,0,0,1.67-.7,2.51,2.51,0,0,0,.66-1.8,2.6,2.6,0,0,0-.65-1.82,2.33,2.33,0,0,0-3.35,0,2.56,2.56,0,0,0-.65,1.82,2.55,2.55,0,0,0,.65,1.8A2.19,2.19,0,0,0,145.46,20Z"/>
    <path d="M155.15,21.55a5.18,5.18,0,0,1-2.29-.48,3.48,3.48,0,0,1-1.53-1.41,4.12,4.12,0,0,1-.55-2.17,4.51,4.51,0,0,1,.48-2.1,3.68,3.68,0,0,1,1.36-1.46,3.8,3.8,0,0,1,2-.54,3.67,3.67,0,0,1,1.86.46,3.06,3.06,0,0,1,1.27,1.32,4.18,4.18,0,0,1,.46,2,4.55,4.55,0,0,1-.06.86h-5.65a2.27,2.27,0,0,0,.89,1.53,3.07,3.07,0,0,0,1.89.54,5.88,5.88,0,0,0,2.58-.59l.18,1.36a4.68,4.68,0,0,1-1.34.48A6.9,6.9,0,0,1,155.15,21.55Zm1.39-4.82a2.21,2.21,0,0,0-.57-1.46,1.83,1.83,0,0,0-1.38-.51,2,2,0,0,0-1.41.51,2.38,2.38,0,0,0-.67,1.46Z"/>
    <path d="M160,13.63h1.67l0,1.29a2.4,2.4,0,0,1,.89-1,2.33,2.33,0,0,1,1.31-.37,2.79,2.79,0,0,1,.46.05,2.13,2.13,0,0,1,.44.12l-.17,1.64a2.31,2.31,0,0,0-.91-.18,1.7,1.7,0,0,0-1.44.67,3,3,0,0,0-.52,1.88V21.3H160Z"/>
    <path d="M166.93,11.86a1.08,1.08,0,0,1-1.1-1.1,1.11,1.11,0,0,1,1.88-.77,1.12,1.12,0,0,1,0,1.55A1.06,1.06,0,0,1,166.93,11.86Zm-.87,1.77h1.75V21.3h-1.75Z"/>
    <path d="M173.78,21.55a5.19,5.19,0,0,1-2.3-.48A3.48,3.48,0,0,1,170,19.66a4.12,4.12,0,0,1-.55-2.17,4.51,4.51,0,0,1,.48-2.1,3.68,3.68,0,0,1,1.36-1.46,3.8,3.8,0,0,1,2-.54,3.73,3.73,0,0,1,1.87.46,3.09,3.09,0,0,1,1.26,1.32,4.18,4.18,0,0,1,.46,2,4.55,4.55,0,0,1-.06.86h-5.65a2.31,2.31,0,0,0,.89,1.53,3.07,3.07,0,0,0,1.89.54,5.88,5.88,0,0,0,2.58-.59l.18,1.36a4.72,4.72,0,0,1-1.33.48A7,7,0,0,1,173.78,21.55Zm1.38-4.82a2.25,2.25,0,0,0-.56-1.46,1.87,1.87,0,0,0-1.39-.51,2,2,0,0,0-1.41.51,2.38,2.38,0,0,0-.67,1.46Z"/>
    <path d="M178.58,13.63h1.67v1a2.12,2.12,0,0,1,.94-.91,3.19,3.19,0,0,1,1.45-.32,2.65,2.65,0,0,1,2.11.84,3.53,3.53,0,0,1,.74,2.43V21.3h-1.75V17a2.48,2.48,0,0,0-.38-1.53,1.43,1.43,0,0,0-1.19-.5,1.67,1.67,0,0,0-1.37.58,2.38,2.38,0,0,0-.49,1.61V21.3h-1.74Z"/>
    <path d="M191.26,21.5a4.85,4.85,0,0,1-2.2-.48,3.58,3.58,0,0,1-1.48-1.38,4.15,4.15,0,0,1-.53-2.13,4.13,4.13,0,0,1,.52-2.09A3.64,3.64,0,0,1,189,14a4.41,4.41,0,0,1,2.21-.53,5.44,5.44,0,0,1,1.27.15,4.48,4.48,0,0,1,1.12.41l-.23,1.49a3.64,3.64,0,0,0-1-.38,5,5,0,0,0-1.06-.13,2.54,2.54,0,0,0-1.85.68,2.4,2.4,0,0,0-.69,1.8,2.42,2.42,0,0,0,.7,1.83,2.68,2.68,0,0,0,1.92.66,5.59,5.59,0,0,0,2.12-.48l.2,1.44a4.75,4.75,0,0,1-1.14.43A5.54,5.54,0,0,1,191.26,21.5Z"/>
    <path d="M199.1,21.55a5.19,5.19,0,0,1-2.3-.48,3.48,3.48,0,0,1-1.53-1.41,4.12,4.12,0,0,1-.55-2.17,4.51,4.51,0,0,1,.48-2.1,3.68,3.68,0,0,1,1.36-1.46,3.8,3.8,0,0,1,2-.54,3.73,3.73,0,0,1,1.87.46,3.09,3.09,0,0,1,1.26,1.32,4.18,4.18,0,0,1,.46,2,4.55,4.55,0,0,1-.06.86h-5.65a2.31,2.31,0,0,0,.89,1.53,3.07,3.07,0,0,0,1.89.54,5.88,5.88,0,0,0,2.58-.59l.18,1.36a4.72,4.72,0,0,1-1.33.48A7,7,0,0,1,199.1,21.55Zm1.38-4.82a2.25,2.25,0,0,0-.56-1.46,1.87,1.87,0,0,0-1.39-.51,2,2,0,0,0-1.41.51,2.38,2.38,0,0,0-.67,1.46Z"/>
    <path d="M206.26,21.55a6.14,6.14,0,0,1-1.54-.2,3.38,3.38,0,0,1-1.19-.53l.23-1.48a4.24,4.24,0,0,0,1.17.56,4.37,4.37,0,0,0,1.29.22c1,0,1.55-.29,1.55-.85a.73.73,0,0,0-.15-.48,1.17,1.17,0,0,0-.48-.32,9.61,9.61,0,0,0-1-.34,4.48,4.48,0,0,1-1.89-.95,2,2,0,0,1-.57-1.47,2.05,2.05,0,0,1,.8-1.7,3.55,3.55,0,0,1,2.2-.62,5.82,5.82,0,0,1,1.36.17,3.57,3.57,0,0,1,1.11.44l-.23,1.42a5.2,5.2,0,0,0-1.07-.44,4.27,4.27,0,0,0-1.13-.16,2.14,2.14,0,0,0-1,.19.65.65,0,0,0-.35.58.77.77,0,0,0,.14.47,1.18,1.18,0,0,0,.45.31,6.61,6.61,0,0,0,.92.32,5,5,0,0,1,2,1,2.17,2.17,0,0,1-.26,3.25A4,4,0,0,1,206.26,21.55Z"/>
</svg>